<svg width="512" height="512" viewBox="0 0 512 512" fill="none" xmlns="http://www.w3.org/2000/svg">
<g clip-path="url(#clip0_1658_3)">
<g clip-path="url(#clip1_1658_3)">
<path fill-rule="evenodd" clip-rule="evenodd" d="M390.254 87.9547C389.989 87.7229 389.717 87.4991 389.439 87.2833L387.976 85.8209L386.25 85.2455C384.831 84.5396 383.323 84.0314 381.766 83.7351L307.777 59.087L203.914 59.086L130.285 83.6124C128.547 83.9149 126.865 84.4807 125.298 85.2904L123.716 85.8179L122.373 87.1606C121.334 87.9853 120.392 88.9265 119.568 89.9658L18.7989 190.735L17.9119 196.273C17.1331 201.09 16.6175 206.159 16.6172 211.474C16.6178 237.056 26.9211 260.412 43.8545 280.62C44.7064 282.291 45.8238 283.814 47.1631 285.127L241.705 479.669C242.585 480.91 243.625 482.031 244.797 483.002C245.116 483.261 245.444 483.509 245.78 483.745L255.85 493.815L265.969 483.697C267.524 482.585 268.885 481.224 269.996 479.669L464.533 285.132C465.873 283.818 466.99 282.296 467.842 280.624C484.773 260.417 495.073 237.063 495.078 211.479L495.054 211.455L495.077 211.431C495.063 206.141 494.543 201.105 493.783 196.326L492.895 190.739L391.981 89.8249C391.452 89.1597 390.875 88.5346 390.255 87.9547M410.635 157.58L459.953 206.899C460.084 208.436 460.357 210.042 460.361 211.527C460.346 229.508 452.326 247.244 437.081 263.386L410.635 157.58ZM364.073 114.472L372.969 149.98L311.615 194.119L268.123 194.118L200.08 194.117L138.726 149.977L147.62 114.469L209.574 93.8029L302.118 93.8036L364.073 114.472ZM382.032 186.231L398.672 252.836L346.189 212.005L382.032 186.231ZM395.076 294.026C364.849 309.92 325.73 321.028 282.127 324.258L323.532 238.354L395.076 294.026ZM289.606 228.835L255.849 298.844L222.09 228.834L268.124 228.835L289.606 228.835ZM353.287 347.276L273.209 427.354L273.207 359.502C301.536 358.274 328.47 354.062 353.286 347.276M165.506 212.002L113.024 252.833L129.662 186.228L165.506 212.002ZM188.164 238.352L229.547 324.234C185.96 321 146.842 309.914 116.62 294.023L188.164 238.352ZM101.059 157.577L74.6144 263.382C59.3509 247.221 51.3337 229.467 51.3334 211.474C51.3337 210.013 51.6125 208.415 51.7412 206.895L101.059 157.577ZM238.49 359.502L238.49 427.354L158.41 347.274C183.228 354.061 210.164 358.273 238.49 359.502Z" fill="#F33434"/>
</g>
</g>
<defs>
<clipPath id="clip0_1658_3">
<rect width="512" height="512" fill="white"/>
</clipPath>
<clipPath id="clip1_1658_3">
<rect width="489.318" height="489.318" fill="white" transform="translate(255.843 -122.157) rotate(45)"/>
</clipPath>
</defs>
</svg>
